<svg xmlns="http://www.w3.org/2000/svg" xmlns:xlink="http://www.w3.org/1999/xlink" id="mermaidChart0" width="3701" height="760" transform="translate(150 0)" version="1.1"><style title="mermaid-svg-internal-css" type="text/css"><![CDATA[ */
* { margin-top: 0px; margin-right: 0px; margin-bottom: 0px; margin-left: 0px; padding-top: 0px; padding-right: 0px; padding-bottom: 0px; padding-left: 0px;  }
/* ]]>*/</style><g><line x1="125" x2="125" y1="10" y2="2000" stroke="#999" stroke-width=".5"/><rect width="150" height="65" x="50" y="10" fill="#eaeaea" stroke="#666" rx="3" ry="3"/><text x="125" y="47.5" style="text-anchor:middle">Client</text></g><g><line x1="325" x2="325" y1="10" y2="2000" stroke="#999" stroke-width=".5"/><rect width="150" height="65" x="250" y="10" fill="#eaeaea" stroke="#666" rx="3" ry="3"/><text x="325" y="47.5" style="text-anchor:middle">ASP.NET Core App</text></g><g><line x1="525" x2="525" y1="10" y2="2000" stroke="#999" stroke-width=".5"/><rect width="150" height="65" x="450" y="10" fill="#eaeaea" stroke="#666" rx="3" ry="3"/><text x="525" y="47.5" style="text-anchor:middle">ExceptionHandler</text></g><g><line x1="725" x2="725" y1="10" y2="2000" stroke="#999" stroke-width=".5"/><rect width="150" height="65" x="650" y="10" fill="#eaeaea" stroke="#666" rx="3" ry="3"/><text x="725" y="47.5" style="text-anchor:middle">StaticFiles</text></g><g><line x1="925" x2="925" y1="10" y2="2000" stroke="#999" stroke-width=".5"/><rect width="150" height="65" x="850" y="10" fill="#eaeaea" stroke="#666" rx="3" ry="3"/><text x="925" y="47.5" style="text-anchor:middle">Routing</text></g><g><line x1="1125" x2="1125" y1="10" y2="2000" stroke="#999" stroke-width=".5"/><rect width="150" height="65" x="1050" y="10" fill="#eaeaea" stroke="#666" rx="3" ry="3"/><text x="1125" y="47.5" style="text-anchor:middle">Cors</text></g><g><line x1="1325" x2="1325" y1="10" y2="2000" stroke="#999" stroke-width=".5"/><rect width="150" height="65" x="1250" y="10" fill="#eaeaea" stroke="#666" rx="3" ry="3"/><text x="1325" y="47.5" style="text-anchor:middle">Authentication</text></g><g><line x1="1525" x2="1525" y1="10" y2="2000" stroke="#999" stroke-width=".5"/><rect width="150" height="65" x="1450" y="10" fill="#eaeaea" stroke="#666" rx="3" ry="3"/><text x="1525" y="47.5" style="text-anchor:middle">CustomMiddleware1</text></g><g><line x1="1725" x2="1725" y1="10" y2="2000" stroke="#999" stroke-width=".5"/><rect width="150" height="65" x="1650" y="10" fill="#eaeaea" stroke="#666" rx="3" ry="3"/><text x="1725" y="47.5" style="text-anchor:middle">Endpoint</text></g><g><line x1="1925" x2="1925" y1="10" y2="2000" stroke="#999" stroke-width=".5"/><rect width="150" height="65" x="1850" y="10" fill="#eaeaea" stroke="#666" rx="3" ry="3"/><text x="1925" y="47.5" style="text-anchor:middle">Client</text></g><g><line x1="2125" x2="2125" y1="10" y2="2000" stroke="#999" stroke-width=".5"/><rect width="150" height="65" x="2050" y="10" fill="#eaeaea" stroke="#666" rx="3" ry="3"/><text x="2125" y="47.5" style="text-anchor:middle">ASP.NET Core App</text></g><g><line x1="2325" x2="2325" y1="10" y2="2000" stroke="#999" stroke-width=".5"/><rect width="150" height="65" x="2250" y="10" fill="#eaeaea" stroke="#666" rx="3" ry="3"/><text x="2325" y="47.5" style="text-anchor:middle">ExceptionHandler</text></g><g><line x1="2525" x2="2525" y1="10" y2="2000" stroke="#999" stroke-width=".5"/><rect width="150" height="65" x="2450" y="10" fill="#eaeaea" stroke="#666" rx="3" ry="3"/><text x="2525" y="47.5" style="text-anchor:middle">StaticFiles</text></g><g><line x1="2725" x2="2725" y1="10" y2="2000" stroke="#999" stroke-width=".5"/><rect width="150" height="65" x="2650" y="10" fill="#eaeaea" stroke="#666" rx="3" ry="3"/><text x="2725" y="47.5" style="text-anchor:middle">Routing</text></g><g><line x1="2925" x2="2925" y1="10" y2="2000" stroke="#999" stroke-width=".5"/><rect width="150" height="65" x="2850" y="10" fill="#eaeaea" stroke="#666" rx="3" ry="3"/><text x="2925" y="47.5" style="text-anchor:middle">Cors</text></g><g><line x1="3125" x2="3125" y1="10" y2="2000" stroke="#999" stroke-width=".5"/><rect width="150" height="65" x="3050" y="10" fill="#eaeaea" stroke="#666" rx="3" ry="3"/><text x="3125" y="47.5" style="text-anchor:middle">Authentication</text></g><g><line x1="3325" x2="3325" y1="10" y2="2000" stroke="#999" stroke-width=".5"/><rect width="150" height="65" x="3250" y="10" fill="#eaeaea" stroke="#666" rx="3" ry="3"/><text x="3325" y="47.5" style="text-anchor:middle">CustomMiddleware1</text></g><g><line x1="3525" x2="3525" y1="10" y2="2000" stroke="#999" stroke-width=".5"/><rect width="150" height="65" x="3450" y="10" fill="#eaeaea" stroke="#666" rx="3" ry="3"/><text x="3525" y="47.5" style="text-anchor:middle">Endpoint</text></g><defs><marker id="arrowhead" markerHeight="4" markerWidth="6" orient="auto" refX="5" refY="2"><path d="M 0,0 V 4 L6,2 Z"/></marker></defs><g><line x1="1925" x2="2125" y1="120" y2="120" stroke="#000" stroke-width="2" marker-end="url(#arrowhead)" class="link"/><text x="2025" y="110" style="text-anchor:middle">Request</text></g><g><line x1="2125" x2="2325" y1="160" y2="160" stroke="#000" stroke-width="2" marker-end="url(#arrowhead)" class="link"/><text x="2225" y="150" style="text-anchor:middle">Request</text></g><g><line x1="2325" x2="2525" y1="200" y2="200" stroke="#000" stroke-width="2" marker-end="url(#arrowhead)" class="link"/><text x="2425" y="190" style="text-anchor:middle">Request</text></g><g><line x1="2525" x2="2725" y1="240" y2="240" stroke="#000" stroke-width="2" marker-end="url(#arrowhead)" class="link"/><text x="2625" y="230" style="text-anchor:middle">Request</text></g><g><line x1="2725" x2="2925" y1="280" y2="280" stroke="#000" stroke-width="2" marker-end="url(#arrowhead)" class="link"/><text x="2825" y="270" style="text-anchor:middle">Request</text></g><g><line x1="2925" x2="3125" y1="320" y2="320" stroke="#000" stroke-width="2" marker-end="url(#arrowhead)" class="link"/><text x="3025" y="310" style="text-anchor:middle">Request</text></g><g><line x1="3125" x2="3325" y1="360" y2="360" stroke="#000" stroke-width="2" marker-end="url(#arrowhead)" class="link"/><text x="3225" y="350" style="text-anchor:middle">Request</text></g><g><line x1="3325" x2="3525" y1="400" y2="400" stroke="#000" stroke-width="2" marker-end="url(#arrowhead)" class="link"/><text x="3425" y="390" style="text-anchor:middle">Request</text></g><g><line x1="3525" x2="3325" y1="440" y2="440" stroke="#000" stroke-width="2" marker-end="url(#arrowhead)" class="link"/><text x="3425" y="430" style="text-anchor:middle">Response</text></g><g><line x1="3325" x2="3125" y1="480" y2="480" stroke="#000" stroke-width="2" marker-end="url(#arrowhead)" class="link"/><text x="3225" y="470" style="text-anchor:middle">Response</text></g><g><line x1="3125" x2="2925" y1="520" y2="520" stroke="#000" stroke-width="2" marker-end="url(#arrowhead)" class="link"/><text x="3025" y="510" style="text-anchor:middle">Response</text></g><g><line x1="2925" x2="2725" y1="560" y2="560" stroke="#000" stroke-width="2" marker-end="url(#arrowhead)" class="link"/><text x="2825" y="550" style="text-anchor:middle">Response</text></g><g><line x1="2725" x2="2525" y1="600" y2="600" stroke="#000" stroke-width="2" marker-end="url(#arrowhead)" class="link"/><text x="2625" y="590" style="text-anchor:middle">Response</text></g><g><line x1="2525" x2="2325" y1="640" y2="640" stroke="#000" stroke-width="2" marker-end="url(#arrowhead)" class="link"/><text x="2425" y="630" style="text-anchor:middle">Response</text></g><g><line x1="2325" x2="2125" y1="680" y2="680" stroke="#000" stroke-width="2" marker-end="url(#arrowhead)" class="link"/><text x="2225" y="670" style="text-anchor:middle">Response</text></g><g><line x1="2125" x2="1925" y1="720" y2="720" stroke="#000" stroke-width="2" marker-end="url(#arrowhead)" class="link"/><text x="2025" y="710" style="text-anchor:middle">Response</text></g></svg>